<?xml version="1.0" encoding="UTF-8" standalone="no"?>
<!-- Created with Inkscape (http://www.inkscape.org/) -->

<svg
   xmlns:dc="http://purl.org/dc/elements/1.1/"
   xmlns:cc="http://creativecommons.org/ns#"
   xmlns:rdf="http://www.w3.org/1999/02/22-rdf-syntax-ns#"
   xmlns:svg="http://www.w3.org/2000/svg"
   xmlns="http://www.w3.org/2000/svg"
   xmlns:sodipodi="http://sodipodi.sourceforge.net/DTD/sodipodi-0.dtd"
   xmlns:inkscape="http://www.inkscape.org/namespaces/inkscape"
   id="svg4286"
   version="1.1"
   inkscape:version="0.48.5 r10040"
   width="199.99998"
   height="44.003189"
   viewBox="0 0 199.99998 44.003189"
   sodipodi:docname="logo.svg">
  <metadata
     id="metadata4292">
    <rdf:RDF>
      <cc:Work
         rdf:about="">
        <dc:format>image/svg+xml</dc:format>
        <dc:type
           rdf:resource="http://purl.org/dc/dcmitype/StillImage" />
        <dc:title />
      </cc:Work>
    </rdf:RDF>
  </metadata>
  <defs
     id="defs4290" />
  <sodipodi:namedview
     pagecolor="#ffffff"
     bordercolor="#666666"
     borderopacity="1"
     objecttolerance="10"
     gridtolerance="10"
     guidetolerance="10"
     inkscape:pageopacity="0"
     inkscape:pageshadow="2"
     inkscape:window-width="1284"
     inkscape:window-height="688"
     id="namedview4288"
     showgrid="false"
     inkscape:zoom="0.53656064"
     inkscape:cx="211.11719"
     inkscape:cy="80.980308"
     inkscape:window-x="0"
     inkscape:window-y="29"
     inkscape:window-maximized="0"
     inkscape:current-layer="layer3"
     fit-margin-top="0"
     fit-margin-left="0"
     fit-margin-right="0"
     fit-margin-bottom="-0.4" />
  <g
     inkscape:groupmode="layer"
     id="layer3"
     inkscape:label="trace2"
     transform="translate(-779.96919,-778.49942)">
    <path
       style="opacity:0.98000004;fill:#000000"
       d="m 825.70445,822.87947 -2.46235,-0.0685 -0.0617,-17.19636 -0.0617,-17.19636 -3.72597,3.41716 c -4.17899,3.83265 -7.56065,6.92432 -10.49839,9.59812 l -1.98085,1.80288 -0.0104,9.79567 -0.0104,9.79568 -2.64264,0 -2.64264,0 -0.0617,-17.20617 -0.0617,-17.20616 -8.11118,7.41049 -8.11118,7.41049 -0.002,9.79567 -0.002,9.79568 -2.64423,0 -2.64423,0 0,-22.11539 0,-22.11538 2.64423,0 2.64423,0 0,9.86003 0,9.86002 4.26683,-3.89546 c 2.34675,-2.1425 6.79958,-6.22795 9.89518,-9.07877 3.09559,-2.85083 6.04331,-5.54331 6.55048,-5.9833 l 0.92212,-0.79999 0,9.88533 0,9.88533 2.94472,-2.69458 c 1.61959,-1.48202 4.78365,-4.3855 7.03125,-6.4522 6.45485,-5.9353 11.36527,-10.34603 11.51814,-10.34603 0.0773,0 0.14051,8.76202 0.14051,19.47116 0,10.70913 0.0622,19.47115 0.13814,19.47115 0.11967,0 4.65071,-4.10446 13.74407,-12.45012 l 2.46395,-2.26135 0,-12.23561 0,-12.23561 2.64421,0 2.64424,0 0,9.73557 c 0,5.35457 0.0585,9.73558 0.13002,9.73558 0.0715,0 1.93748,-1.66285 4.14662,-3.69524 2.20917,-2.03237 6.9914,-6.39924 10.62722,-9.70414 l 6.61056,-6.00891 0.0615,19.55991 c 0.0338,10.75796 0.12369,19.55992 0.19975,19.55992 0.13068,0 7.98513,-7.11431 13.62097,-12.3374 l 2.5841,-2.39489 0,-12.2252 0,-12.2252 2.64424,0 2.64425,0 0,9.73557 c 0,5.35457 0.0657,9.73558 0.14609,9.73558 0.14267,0 2.04391,-1.71631 8.3878,-7.57199 5.56826,-5.13972 12.66166,-11.5365 12.88399,-11.61871 0.1276,-0.0472 0.21674,7.94567 0.21674,19.43109 0,11.76498 0.0877,19.4794 0.221,19.43109 0.12157,-0.0441 1.87938,-1.60415 3.90624,-3.46684 2.02687,-1.86269 5.60531,-5.14602 7.95207,-7.29629 l 4.26683,-3.90957 0,-12.23496 0,-12.23497 2.64424,0 2.64421,0 0,9.73557 c 0,5.35457 0.0622,9.73558 0.13822,9.73558 0.076,0 1.18479,-0.96546 2.46396,-2.14546 1.27914,-1.18001 6.05767,-5.5427 10.61899,-9.69488 l 8.29327,-7.54943 0.0628,9.71401 c 0.0363,5.61873 0.15394,9.68062 0.27896,9.63479 0.18245,-0.0669 2.87668,-2.49957 11.5356,-10.41576 3.44565,-3.15009 8.16577,-7.49351 8.97599,-8.25963 l 0.90145,-0.85236 0,22.16417 0,22.16417 -2.64264,0 -2.64266,0 -0.0617,-17.17859 -0.0617,-17.17859 -1.25541,1.13292 c -0.69046,0.6231 -4.33544,3.94541 -8.09991,7.38291 l -6.84455,6.25 -0.013,9.77805 c -0.0118,8.80064 -0.0519,9.78581 -0.40113,9.85577 -0.21346,0.0427 -1.40334,0.0433 -2.64424,10e-4 l -2.25616,-0.0766 0,-17.19898 0,-17.19897 -1.02162,0.91074 c -1.01966,0.90898 -9.58962,8.71114 -13.31928,12.12597 l -1.96909,1.80288 -0.0182,9.79567 -0.0179,9.79568 -2.64076,0 -2.64076,0 -0.0635,-7.33206 -0.0636,-7.33206 -2.28365,2.08225 c -1.25601,1.14524 -3.95566,3.60632 -5.99918,5.46908 -2.04357,1.86275 -4.62544,4.22517 -5.73753,5.24981 l -2.02196,1.86298 -2.73444,0 -2.73447,0 -0.0617,-17.19618 -0.0617,-17.19619 -8.11297,7.37448 -8.11299,7.37448 0,9.8217 0,9.82171 -2.64421,0 -2.64424,0 0,-7.35663 0,-7.35664 -0.90145,0.78153 c -0.49578,0.42985 -1.55316,1.38756 -2.34972,2.12827 -5.54612,5.15724 -12.94764,11.70324 -13.34613,11.80347 -0.26285,0.0661 -1.50302,0.0857 -2.756,0.0436 l -2.27815,-0.0766 -0.0617,-17.17739 -0.0617,-17.17739 -4.9279,4.48406 c -2.71033,2.46623 -6.36118,5.78532 -8.11299,7.37573 l -3.18508,2.89168 0,9.81812 0,9.81811 -2.64424,0 -2.64423,0 0,-7.21154 c 0,-3.96635 -0.0866,-7.21154 -0.19257,-7.21154 -0.19023,0 -2.33979,1.92839 -11.19064,10.03925 -2.49273,2.28433 -4.71027,4.23223 -4.92788,4.32867 -0.2176,0.0964 -1.5037,0.14453 -2.85799,0.10686 z"
       id="path4300"
       inkscape:connector-curvature="0"
       sodipodi:nodetypes="ccccsscccccccccccccccccccssscccsssssscccccsssscssscccccssssscsscccccsssscssssccccccccscccccccsscccccccssscccccccccccccsssscccsscccccsssscc" />
  </g>
</svg>
